<?xml version="1.0" standalone="no"?>
<!DOCTYPE svg PUBLIC "-//W3C//DTD SVG 20010904//EN"
 "http://www.w3.org/TR/2001/REC-SVG-20010904/DTD/svg10.dtd">
<svg version="1.0" xmlns="http://www.w3.org/2000/svg"
 width="130.000000pt" height="130.000000pt" viewBox="0 0 130.000000 130.000000"
 preserveAspectRatio="xMidYMid meet">
<metadata>
Created by potrace 1.11, written by Peter Selinger 2001-2013
</metadata>
<g transform="translate(0.000000,130.000000) scale(0.100000,-0.100000)"
fill="#000000" stroke="none">
<path d="M0 650 l0 -650 650 0 650 0 0 650 0 650 -650 0 -650 0 0 -650z m695
534 c0 -37 -4 -49 -15 -49 -17 0 -25 43 -15 82 10 42 30 20 30 -33z m-147 -16
c11 -42 9 -58 -9 -58 -10 0 -24 30 -35 75 -5 20 -2 25 14 25 15 0 22 -10 30
-42z m324 12 c-3 -33 -25 -75 -37 -72 -12 4 -10 37 4 75 13 33 37 31 33 -3z
m-474 -85 c22 -32 23 -55 2 -55 -15 0 -63 77 -56 89 10 16 29 4 54 -34z m614
-26 c-15 -21 -31 -39 -35 -39 -20 0 -16 33 8 65 22 28 31 33 41 24 11 -9 9
-18 -14 -50z m-745 -81 c32 -23 45 -58 21 -58 -22 1 -82 56 -74 68 10 16 15
15 53 -10z m889 -13 c4 -10 -27 -50 -92 -118 -110 -114 -193 -231 -267 -376
-58 -115 -72 -131 -107 -131 -30 0 -50 19 -104 105 -54 83 -109 147 -150 176
-43 29 -52 48 -32 67 13 13 20 13 48 2 50 -20 133 -75 181 -119 l43 -40 67 88
c80 106 207 235 302 307 72 55 101 65 111 39z m-965 -137 c37 -10 50 -30 30
-42 -15 -10 -86 20 -89 37 -4 20 7 21 59 5z m19 -183 c0 -12 -13 -15 -55 -15
-42 0 -55 3 -55 15 0 12 13 15 55 15 42 0 55 -3 55 -15z m17 -141 c2 -7 -16
-19 -41 -27 -37 -13 -47 -13 -56 -2 -12 15 -5 22 38 35 34 11 54 8 59 -6z m67
-133 c6 -9 -28 -43 -61 -60 -38 -20 -40 9 -3 41 35 29 55 35 64 19z m113 -117
c2 -6 -12 -28 -31 -50 -29 -33 -35 -36 -41 -21 -5 11 2 29 20 53 25 33 45 40
52 18z m131 -107 c-12 -37 -26 -57 -39 -57 -14 0 -11 37 6 77 12 29 18 33 29
24 12 -10 12 -19 4 -44z m162 -26 c0 -51 -15 -75 -31 -50 -10 16 -12 83 -2 92
3 4 12 7 20 7 9 0 13 -15 13 -49z"/>
</g>
</svg>
